:SAMPLES-PER-SECOND 30
:FULLY-SPECIFIED
:DEGREES
207
root  -50.7844 22.7789 31.4561 25.5125 53.7647 7.42932
RightUpLeg  -34.7439 -10.3246 -23.6295
RightLeg  93.4185 0.109371 -2.18014
RightFoot  -23.5159 0.783428 4.14024
RightToes  -57.0209 -0.366639 -0.389816
Spine  22.7305 3.28325 -0.363706
Spine1  38.486 13.7393 -2.85512
HEad  -0.107296 -9.3044 4.91498
LeftShoulder1  0 -2.42657e-020 -4.95415e-022
LeftArm  -18.9196 -24.8896 -82.0826
LeftForeArm  23.9776 -30.9735 -6.06983
LeftHand  -0.237458 -7.11289 3.45263
RightShoulder  0 2.42657e-020 1.07489e-018
RightArm  -69.8654 35.6947 51.5524
RightForeArm  49.9263 17.478 3.15354
RightHand  -4.26814 19.0979 -24.6184
LeftUpLeg  -87.1358 -0.897321 9.21773
LeftLeg  78.4854 -5.80235 -20.4386
LeftFoot  1.46393 0.0121543 -0.951338
LeftToes  -53.9575 1.71452e-006 7.46813e-008
208
root  -50.2708 22.6343 32.5527 25.3684 54.6628 7.30779
RightUpLeg  -37.61 -9.69009 -25.3518
RightLeg  100.025 -0.959036 9.75918
RightFoot  -18.4286 0.0400846 0.624671
RightToes  -53.437 -0.333703 -0.377804
Spine  23.1481 2.03101 -0.591115
Spine1  39.2355 10.1259 -1.78223
HEad  -0.836142 -8.4458 3.71593
LeftShoulder1  0 -2.42657e-020 -4.95415e-022
LeftArm  -22.0827 -27.8529 -80.0016
LeftForeArm  24.2823 -30.4697 -5.94868
LeftHand  -0.272034 -7.19569 3.95826
RightShoulder  0 2.42657e-020 1.07489e-018
RightArm  -62.1416 32.4267 55.5797
RightForeArm  43.4984 28.1109 5.38535
RightHand  -4.83379 20.683 -25.6847
LeftUpLeg  -86.7586 -0.964727 10.6464
LeftLeg  80.9539 -5.08184 -21.4417
LeftFoot  -0.874487 -0.00179706 -0.235487
LeftToes  -56.6642 1.71452e-006 7.46813e-008
209
root  -50.1406 22.9034 33.5737 26.2454 55.611 6.89752
RightUpLeg  -43.5745 -10.6082 -26.5626
RightLeg  101.257 -2.9283 21.9397
RightFoot  -17.9294 -0.533283 -3.0021
RightToes  -64.6591 -0.438961 -0.40842
Spine  23.7774 0.92581 -0.149089
Spine1  40.2529 6.63076 -0.0386261
HEad  -2.88527 -7.71696 0.972226
LeftShoulder1  0 -2.42657e-020 -4.95415e-022
LeftArm  -24.5513 -31.2848 -78.5314
LeftForeArm  23.7604 -30.252 -5.89682
LeftHand  -0.272301 -6.98163 4.09569
RightShoulder  0 2.42657e-020 1.07489e-018
RightArm  -57.8057 31.8356 55.1884
RightForeArm  49.4503 36.5326 7.48242
RightHand  -5.3658 20.6617 -28.4716
LeftUpLeg  -86.1739 -0.510226 12.4356
LeftLeg  80.4985 -5.62642 -22.7389
LeftFoot  -2.15114 0.00220387 0.117378
LeftToes  -58.6487 1.71452e-006 7.46813e-008
210
root  -50.237 23.4351 34.5103 27.608 56.0392 6.28857
RightUpLeg  -51.122 -12.9044 -27.2519
RightLeg  99.4098 -1.45053 15.4267
RightFoot  -18.6303 -0.24213 -1.09857
RightToes  -59.0759 -0.385844 -0.395767
Spine  24.132 0.14601 0.213846
Spine1  40.6908 3.75735 1.123
HEad  -3.53881 -6.50397 -1.3288
LeftShoulder1  0 -2.42657e-020 -4.95415e-022
LeftArm  -26.4002 -34.0866 -76.2434
LeftForeArm  23.6836 -30.4948 -5.95476
LeftHand  -0.293906 -6.85797 4.53672
RightShoulder  0 2.42657e-020 1.07489e-018
RightArm  -54.8231 32.8098 56.1219
RightForeArm  52.2104 45.8257 10.4425
RightHand  -5.74366 18.4021 -34.0557
LeftUpLeg  -85.2459 0.655557 13.7197
LeftLeg  78.3149 -6.69078 -22.9973
LeftFoot  -2.64316 0.00423075 0.183378
LeftToes  -59.3331 1.71452e-006 7.46813e-008
211
root  -50.4374 24.025 35.6113 23.1026 55.9077 0.724609
RightUpLeg  -56.4918 -11.2006 -26.2242
RightLeg  92.6084 0.223128 5.59592
RightFoot  -20.2145 0.240481 1.72661
RightToes  -50.0468 -0.303294 -0.364567
Spine  25.3882 0.249201 1.56825
Spine1  42.6208 2.5694 3.54024
HEad  -3.4892 -4.90021 -4.56045
LeftShoulder1  0 -2.42657e-020 -4.95415e-022
LeftArm  -28.243 -36.6885 -75.0471
LeftForeArm  21.0415 -31.6635 -6.2379
LeftHand  -0.265705 -7.30127 3.79634
RightShoulder  0 2.42657e-020 1.07489e-018
RightArm  -53.9218 35.1185 55.8993
RightForeArm  59.4039 56.4043 15.3998
RightHand  -6.05939 20.4681 -32.3173
LeftUpLeg  -82.5355 1.67925 19.5349
LeftLeg  76.5918 -7.60942 -23.3221
LeftFoot  -2.99782 -0.00433356 -0.165621
LeftToes  -60.9555 1.71452e-006 7.46813e-008
212
root  -50.6918 24.3902 36.6619 18.0612 54.3633 -4.70026
RightUpLeg  -60.0138 -6.60366 -27.4622
RightLeg  82.1578 -0.433804 -2.59519
RightFoot  -20.3615 0.725046 4.4135
RightToes  -43.4937 -0.246977 -0.333995
Spine  27.2492 1.17368 2.95691
Spine1  45.6529 3.239 5.4743
HEad  -3.52628 -3.63201 -6.95006
LeftShoulder1  0 -2.42657e-020 -4.95415e-022
LeftArm  -28.5855 -40.1824 -75.3769
LeftForeArm  20.3384 -32.8389 -6.53007
LeftHand  -0.259655 -6.23334 4.4009
RightShoulder  0 2.42657e-020 1.07489e-018
RightArm  -51.4713 38.2035 51.1448
RightForeArm  68.6784 61.6318 19.0677
RightHand  -6.14573 19.0328 -35.1547
LeftUpLeg  -79.603 2.78645 25.6353
LeftLeg  76.2554 -7.92647 -23.7376
LeftFoot  -3.0074 -0.0229545 -0.874429
LeftToes  -60.812 1.71452e-006 7.46813e-008
213
root  -50.9688 24.3918 37.3859 23.6906 51.2227 -0.505264
RightUpLeg  -65.4109 -4.84668 -36.3744
RightLeg  71.212 0.0925909 0.0393455
RightFoot  -14.1531 0.392133 3.53572
RightToes  -46.3404 -0.27101 -0.348066
Spine  26.9523 1.80856 1.28484
Spine1  44.948 3.37504 3.94095
HEad  -3.44403 -2.64383 -8.28203
LeftShoulder1  0 -2.42657e-020 -4.95415e-022
LeftArm  -29.4845 -42.0268 -75.0946
LeftForeArm  19.7028 -32.5768 -6.46411
LeftHand  -0.259572 -6.97424 3.89164
RightShoulder  0 2.42657e-020 1.07489e-018
RightArm  -46.2954 41.0259 49.5744
RightForeArm  70.9894 61.495 18.9432
RightHand  -7.11572 19.5721 -39.2888
LeftUpLeg  -78.7792 3.42232 25.7668
LeftLeg  75.1108 -7.83734 -22.1096
LeftFoot  -3.65544 -0.0315205 -0.987759
LeftToes  -60.8564 1.71452e-006 7.46813e-008
214
root  -51.0253 24.0688 38.2048 36.6499 51.3204 10.8379
RightUpLeg  -65.771 -9.45884 -48.8092
RightLeg  62.5771 8.39797 13.5177
RightFoot  1.75998 -0.0609715 4.34377
RightToes  -68.0597 -0.471826 -0.41357
Spine  24.753 0.269334 -0.673188
Spine1  41.2497 0.652401 0.786223
HEad  -4.0713 -1.2809 -9.42556
LeftShoulder1  0 -2.42657e-020 -4.95415e-022
LeftArm  -30.4145 -41.4117 -75.3419
LeftForeArm  20.0376 -32.3326 -6.40318
LeftHand  -0.236154 -7.38413 3.2916
RightShoulder  0 2.42657e-020 1.07489e-018
RightArm  -38.8183 42.3956 51.7229
RightForeArm  70.2524 55.4904 14.8223
RightHand  -7.64512 21.2137 -38.9123
LeftUpLeg  -80.6931 -0.167475 22.4407
LeftLeg  72.0065 -7.79316 -18.8544
LeftFoot  -6.07633 -0.00562016 -0.105898
LeftToes  -60.0259 1.71452e-006 7.46813e-008
215
root  -51.389 23.2338 39.6357 41.6927 52.3746 16.6848
RightUpLeg  -63.2836 -7.00414 -56.6963
RightLeg  64.1691 10.7752 18.1887
RightFoot  -5.48635 0.0812582 2.0736
RightToes  -84.5085 -0.632178 -0.410718
Spine  23.8163 -0.149722 -0.770937
Spine1  39.6478 1.27166 -1.46952
HEad  -2.48194 0.329976 -10.031
LeftShoulder1  0 -2.42657e-020 -4.95415e-022
LeftArm  -29.3521 -40.5108 -76.843
LeftForeArm  20.5285 -32.6147 -6.47374
LeftHand  -0.248164 -7.31611 3.51358
RightShoulder  0 2.42657e-020 1.07489e-018
RightArm  -36.9861 44.0926 55.3146
RightForeArm  69.5297 42.5502 9.2458
RightHand  -7.55833 22.9148 -35.7416
LeftUpLeg  -80.2864 -2.47709 22.6334
LeftLeg  71.331 -6.5016 -15.4132
LeftFoot  -9.79975 0.0383426 0.447247
LeftToes  -59.4522 1.71452e-006 7.46813e-008
